<svg width="213" height="213" viewBox="0 0 213 213" fill="none" xmlns="http://www.w3.org/2000/svg">
<path d="M99 4.33013C103.641 1.65064 109.359 1.65063 114 4.33013L191.232 48.9199C195.873 51.5994 198.732 56.5513 198.732 61.9103V151.09C198.732 156.449 195.873 161.401 191.232 164.08L114 208.67C109.359 211.349 103.641 211.349 99 208.67L21.7683 164.08C17.1273 161.401 14.2683 156.449 14.2683 151.09V61.9103C14.2683 56.5513 17.1273 51.5994 21.7683 48.9199L99 4.33013Z" fill="#1B1B1B"/>
<path fill-rule="evenodd" clip-rule="evenodd" d="M66.8819 158.097C67.3015 158.325 67.734 158.535 68.1796 158.727C70.0878 159.531 72.0964 159.932 74.2055 159.932H132.807C134.916 159.932 136.9 159.531 138.758 158.727C140.666 157.924 142.323 156.819 143.729 155.413C145.135 154.007 146.24 152.375 147.043 150.517C147.847 148.609 148.249 146.6 148.249 144.491V130.632H132.807V144.491H77.8999L66.8819 158.097ZM127.492 67.3598H74.2055V133.163L60.0337 150.664C60.012 150.615 59.9906 150.566 59.9693 150.517C59.1659 148.609 58.7642 146.6 58.7642 144.491V67.3598C58.7642 65.2507 59.1659 63.2672 59.9693 61.4092C60.7728 59.501 61.8775 57.869 63.2836 56.5132C64.6896 55.1072 66.3216 54.0024 68.1796 53.199C70.0878 52.3453 72.0964 51.9185 74.2055 51.9185H132.807C134.916 51.9185 136.9 52.3453 138.758 53.199C138.808 53.22 138.858 53.2413 138.907 53.2628L127.492 67.3598ZM132.807 76.6862V81.2946H148.249V67.3598C148.249 65.2507 147.847 63.2672 147.043 61.4092C146.833 60.9085 146.601 60.4267 146.349 59.964L132.807 76.6862Z" fill="white"/>
<path d="M141.901 93.7273L141.905 93.7266C142.227 93.6635 142.552 93.7964 142.741 94.0769C142.925 94.3535 142.927 94.7088 142.745 94.9862L142.744 94.9869L94.283 168.973C94.2827 168.974 94.2825 168.974 94.2822 168.975C94.1263 169.21 93.8708 169.347 93.5928 169.347C93.4983 169.347 93.4053 169.331 93.315 169.299C92.9572 169.172 92.7354 168.822 92.7751 168.44L92.7751 168.44L97.9581 118.428L98.131 116.76L96.484 117.077L70.9644 121.995C70.9633 121.995 70.9623 121.996 70.9612 121.996C70.6237 122.057 70.2981 121.915 70.1178 121.646L70.1162 121.643C69.9328 121.371 69.9296 121.016 70.113 120.736L70.1135 120.736L118.577 46.7465C118.577 46.7465 118.577 46.7464 118.577 46.7464C118.785 46.4282 119.178 46.2941 119.542 46.4223C119.903 46.5511 120.124 46.903 120.084 47.2805L120.084 47.2811L114.901 97.2945L114.728 98.9627L116.375 98.6454L141.901 93.7273Z" fill="#D89F00" stroke="#FF8A00" stroke-width="2.4902"/>
</svg>
