<svg width="463" height="441" viewBox="0 0 463 441" fill="none" xmlns="http://www.w3.org/2000/svg">
<g filter="url(#filter0_f_28_129)">
<path d="M231.5 361C315.171 361 383 298.096 383 220.5C383 142.904 315.171 80 231.5 80C147.829 80 80 142.904 80 220.5C80 298.096 147.829 361 231.5 361Z" fill="url(#paint0_linear_28_129)"/>
</g>
<g filter="url(#filter1_d_28_129)">
<path d="M228.426 117.801C230.947 116.338 233.807 115.568 236.717 115.568C239.628 115.568 242.488 116.338 245.009 117.801L320.339 161.525C322.86 162.988 324.953 165.093 326.408 167.627C327.864 170.162 328.63 173.037 328.63 175.963V263.412C328.63 266.338 327.864 269.213 326.408 271.747C324.953 274.282 322.86 276.386 320.339 277.85L245.009 321.574C242.488 323.037 239.628 323.807 236.717 323.807C233.807 323.807 230.947 323.037 228.426 321.574L153.096 277.85C150.575 276.386 148.482 274.282 147.026 271.747C145.571 269.213 144.805 266.338 144.805 263.412V175.963C144.805 173.037 145.571 170.162 147.026 167.627C148.482 165.093 150.575 162.988 153.096 161.525" fill="#1B1B1B"/>
</g>
<path fill-rule="evenodd" clip-rule="evenodd" d="M196.882 270.665C197.301 270.892 197.734 271.102 198.18 271.295C200.088 272.098 202.096 272.5 204.205 272.5H262.807C264.916 272.5 266.9 272.098 268.758 271.295C270.666 270.491 272.323 269.387 273.729 267.98C275.135 266.574 276.24 264.942 277.043 263.084C277.847 261.176 278.249 259.168 278.249 257.059V243.199H262.807V257.059H207.9L196.882 270.665ZM257.492 179.927H204.205V245.731L190.034 263.231C190.012 263.183 189.991 263.134 189.969 263.084C189.166 261.176 188.764 259.168 188.764 257.059V179.927C188.764 177.818 189.166 175.835 189.969 173.977C190.773 172.069 191.878 170.437 193.284 169.081C194.69 167.675 196.322 166.57 198.18 165.766C200.088 164.913 202.096 164.486 204.205 164.486H262.807C264.916 164.486 266.9 164.913 268.758 165.766C268.808 165.788 268.858 165.809 268.907 165.83L257.492 179.927ZM262.807 189.254V193.862H278.249V179.927C278.249 177.818 277.847 175.835 277.043 173.977C276.833 173.476 276.601 172.994 276.349 172.532L262.807 189.254Z" fill="white"/>
<path d="M271.901 206.295L271.905 206.294C272.227 206.231 272.552 206.364 272.741 206.644C272.925 206.921 272.927 207.276 272.745 207.554L272.744 207.554L224.283 281.541C224.283 281.541 224.282 281.542 224.282 281.542C224.126 281.778 223.871 281.915 223.593 281.915C223.498 281.915 223.405 281.899 223.315 281.867C222.957 281.739 222.735 281.389 222.775 281.008L222.775 281.008L227.958 230.996L228.131 229.327L226.484 229.645L200.964 234.563C200.963 234.563 200.962 234.563 200.961 234.563C200.624 234.625 200.298 234.483 200.118 234.213L200.116 234.211C199.933 233.938 199.93 233.583 200.113 233.304L200.113 233.303L248.577 159.314C248.577 159.314 248.577 159.314 248.577 159.314C248.785 158.996 249.178 158.862 249.542 158.99C249.903 159.119 250.124 159.47 250.084 159.848L250.084 159.849L244.901 209.862L244.728 211.53L246.375 211.213L271.901 206.295Z" fill="#D89F00" stroke="#FF8A00" stroke-width="2.4902"/>
<defs>
<filter id="filter0_f_28_129" x="0" y="0" width="463" height="441" filterUnits="userSpaceOnUse" color-interpolation-filters="sRGB">
<feFlood flood-opacity="0" result="BackgroundImageFix"/>
<feBlend mode="normal" in="SourceGraphic" in2="BackgroundImageFix" result="shape"/>
<feGaussianBlur stdDeviation="40" result="effect1_foregroundBlur_28_129"/>
</filter>
<filter id="filter1_d_28_129" x="95.8047" y="66.5675" width="283.825" height="308.24" filterUnits="userSpaceOnUse" color-interpolation-filters="sRGB">
<feFlood flood-opacity="0" result="BackgroundImageFix"/>
<feColorMatrix in="SourceAlpha" type="matrix" values="0 0 0 0 0 0 0 0 0 0 0 0 0 0 0 0 0 0 127 0" result="hardAlpha"/>
<feOffset dx="1" dy="1"/>
<feGaussianBlur stdDeviation="25"/>
<feComposite in2="hardAlpha" operator="out"/>
<feColorMatrix type="matrix" values="0 0 0 0 0 0 0 0 0 0 0 0 0 0 0 0 0 0 1 0"/>
<feBlend mode="normal" in2="BackgroundImageFix" result="effect1_dropShadow_28_129"/>
<feBlend mode="normal" in="SourceGraphic" in2="effect1_dropShadow_28_129" result="shape"/>
</filter>
<linearGradient id="paint0_linear_28_129" x1="80" y1="80" x2="383" y2="361" gradientUnits="userSpaceOnUse">
<stop stop-color="#41C8FF"/>
<stop offset="1" stop-color="#BD34FE"/>
</linearGradient>
</defs>
</svg>
