<svg width="1920" height="1080" viewBox="0 0 1920 1080" fill="none" xmlns="http://www.w3.org/2000/svg">
<g clip-path="url(#clip0_12_377)">
<rect width="1920" height="1080" fill="white"/>
<g clip-path="url(#clip1_12_377)">
<path d="M1919.89 0.119615L1920 1079.99L-30.991 1080V-0.00514126L1919.89 0.119615Z" fill="#0E1120"/>
<path d="M672.594 324.305V740.956H627.647V324.305H672.594Z" fill="#423D9E"/>
<path d="M1210.88 475.926V604.074H1146.48V475.926H1210.88Z" fill="#423D9E"/>
<path d="M1148.32 331.315V748.685H1046.1V331.315H1148.32Z" fill="#423D9E"/>
<path d="M665.868 -135.503V173.352H620.921V-135.503H665.868Z" fill="#423D9E"/>
<path d="M622.524 12.8571V137.56H577.576V12.8571H622.524Z" fill="#423D9E"/>
<path d="M782.816 69.1483V107.69H737.87V69.1483H782.816Z" fill="#423D9E"/>
<path d="M820.929 -66.6648V72.0231H775.983V-66.6648H820.929Z" fill="#423D9E"/>
<path d="M813.082 1021.1V1159.79H768.136V1021.1H813.082Z" fill="#423D9E"/>
<path d="M713.318 960.307V998.85H668.372V960.307H713.318Z" fill="#37BDD2"/>
<path d="M668.293 922.062V960.605H623.347V922.062H668.293Z" fill="white"/>
<path d="M1129.27 1133.49V1003.6" stroke="white" stroke-width="2.66667" stroke-miterlimit="10" stroke-linecap="round" stroke-linejoin="round"/>
<path d="M1175.01 1015.18V927.403" stroke="#423D9E" stroke-width="2.66667" stroke-miterlimit="10" stroke-linecap="round" stroke-linejoin="round"/>
<path d="M444.732 386.403V540H405.007V386.403H444.732Z" stroke="white" stroke-width="2.66667" stroke-miterlimit="10" stroke-linecap="round" stroke-linejoin="round"/>
<path d="M447.777 560.688V596.428H402.842V560.688H447.777Z" fill="#423D9E"/>
<path d="M447.777 617.118V652.858H402.842V617.118H447.777Z" fill="#2CB685"/>
<path d="M1200.97 137.228L1021.43 137.228V102.507L1200.97 102.507V137.228Z" fill="#2CB685"/>
<path d="M966.511 97.9727H921.684V63.2513L966.511 63.2513V97.9727Z" stroke="#2CB685" stroke-width="2.66667" stroke-miterlimit="10" stroke-linecap="round" stroke-linejoin="round"/>
<path d="M1342.63 107.023V71.5174H1385.85V107.023H1342.63Z" fill="#B55CB5"/>
<path d="M1433.52 107.023V71.5174H1476.73V107.023H1433.52Z" fill="#423D9E"/>
<path d="M1146.06 152.7V-47.8035" stroke="white" stroke-width="2.66667" stroke-miterlimit="10" stroke-linecap="round" stroke-linejoin="round"/>
<path d="M1107.75 50.9659V-58.6274" stroke="white" stroke-width="2.66667" stroke-miterlimit="10" stroke-linecap="round" stroke-linejoin="round" stroke-dasharray="4 10.67"/>
<path d="M1064.4 972.804V1258.58H1005.95V972.804H1064.4Z" fill="#37BDD2"/>
<path d="M1033.77 914.919V1200.69H917.189V914.919H1033.77Z" stroke="white" stroke-width="2.66667" stroke-miterlimit="10" stroke-linecap="round" stroke-linejoin="round"/>
<path d="M376.882 802.139L331.057 853.07L285.47 802.139H308.086L331.427 828.551L355.707 802.139H376.882Z" fill="white"/>
<path d="M374.64 866.217L328.815 917.148L283.228 866.217H305.844L329.185 892.629L353.465 866.217H374.64Z" stroke="white" stroke-width="2.66667" stroke-miterlimit="10" stroke-linecap="round" stroke-linejoin="round"/>
<path d="M374.64 932.026L328.815 982.958L283.228 932.026H307.515L329.185 958.438L349.365 932.026H374.64Z" stroke="white" stroke-width="2.66667" stroke-miterlimit="10" stroke-linecap="round" stroke-linejoin="round"/>
<path d="M222.426 -108.353L222.426 309.86L-127.298 309.86L-127.298 -108.353L222.426 -108.353Z" fill="#423D9E"/>
<path d="M144.337 276.325L144.337 481.88H66.9929L66.9929 276.325H144.337Z" fill="#2CB685"/>
<path d="M101.126 416.514L101.126 619.137H-51.3252L-51.3252 416.514H101.126Z" stroke="white" stroke-width="2.66667" stroke-miterlimit="10"/>
<path d="M376.882 66.6855V184.45L68.9501 184.45V66.6855L376.882 66.6855Z" fill="#2CB685"/>
<path d="M376.882 286.252H336.456V252.221H376.882V286.252Z" fill="#37BDD2"/>
<path d="M103.368 747.124L103.368 1121.18H-84.9455L-84.9455 747.124H103.368Z" fill="#B55CB5"/>
<path d="M151.958 886.548V1010.53H80.9492L80.9492 886.548H151.958Z" fill="white"/>
<path d="M254.937 577.414V574.817" stroke="white" stroke-width="2.66667" stroke-linecap="round" stroke-linejoin="round"/>
<path d="M254.937 561.014V397.126" stroke="white" stroke-width="2.66667" stroke-linecap="round" stroke-linejoin="round" stroke-dasharray="3.98 10.63"/>
<path d="M254.937 390.227V387.629" stroke="white" stroke-width="2.66667" stroke-linecap="round" stroke-linejoin="round"/>
<path d="M300.333 662.873V660.275" stroke="#2CB685" stroke-width="2.66667" stroke-linecap="round" stroke-linejoin="round"/>
<path d="M300.333 646.474V482.587" stroke="#2CB685" stroke-width="2.66667" stroke-linecap="round" stroke-linejoin="round" stroke-dasharray="3.98 10.63"/>
<path d="M300.333 475.685V473.088" stroke="#2CB685" stroke-width="2.66667" stroke-linecap="round" stroke-linejoin="round"/>
<path d="M1544.93 195.706V86.2587" stroke="white" stroke-width="2.66667" stroke-miterlimit="10" stroke-linecap="round" stroke-linejoin="round"/>
<path d="M1589.77 165.689V-74.2052" stroke="#423D9E" stroke-width="2.66667" stroke-miterlimit="10" stroke-linecap="round" stroke-linejoin="round"/>
<path d="M1834.3 543.644V426.753" stroke="#2CB685" stroke-width="2.66667" stroke-miterlimit="10" stroke-linecap="round" stroke-linejoin="round" stroke-dasharray="4 10.67"/>
<path d="M1793.95 624.333V525.619" stroke="white" stroke-width="2.66667" stroke-miterlimit="10" stroke-linecap="round" stroke-linejoin="round" stroke-dasharray="4 10.67"/>
<path d="M527.318 1121.94V973.881" stroke="white" stroke-width="2.66667" stroke-miterlimit="10" stroke-linecap="round" stroke-linejoin="round" stroke-dasharray="4 10.67"/>
<path d="M1314.2 978.312V928.685" stroke="white" stroke-width="2.66667" stroke-miterlimit="10" stroke-linecap="round" stroke-linejoin="round" stroke-dasharray="4 10.67"/>
<path d="M1658.3 386.496V511.2H1613.35V386.496H1658.3Z" fill="#423D9E"/>
<path d="M1613.27 432.39V557.095H1568.33V432.39H1613.27Z" fill="#B55CB5"/>
<path d="M1613.27 601.234V725.939H1568.33V601.234H1613.27Z" stroke="#B55CB5" stroke-width="2.66667" stroke-miterlimit="10" stroke-linecap="round" stroke-linejoin="round"/>
<path d="M1614.22 336.703V301.197H1657.43V336.703H1614.22Z" fill="#423D9E"/>
<path d="M1969.93 910.774V1115.98H1432.83V910.774H1969.93Z" fill="#423D9E"/>
<path d="M1778.26 778.295V963.541H1694.19V778.295H1778.26Z" fill="#2CB685"/>
<path d="M1980.02 -68.5231V336.703H1832.06V-68.5231H1980.02Z" fill="#423D9E"/>
<path d="M1939.67 -99.696V305.53H1791.71V-99.696H1939.67Z" fill="white"/>
<path d="M1837.77 246.347H1689.59V212.317H1837.77V246.347Z" fill="#37BDD2"/>
</g>
</g>
<defs>
<clipPath id="clip0_12_377">
<rect width="1920" height="1080" fill="white"/>
</clipPath>
<clipPath id="clip1_12_377">
<rect width="1080" height="1951" fill="white" transform="matrix(0 -1 1 0 -31 1080)"/>
</clipPath>
</defs>
</svg>
